<svg width="74" height="33" viewBox="0 0 74 33" fill="none" xmlns="http://www.w3.org/2000/svg">
<path d="M6.016 26.256C4.50133 26.256 3.28533 25.7867 2.368 24.848C1.45067 23.888 0.928 22.6293 0.8 21.072L3.648 20.208C3.81867 21.3813 4.10667 22.2667 4.512 22.864C4.91733 23.44 5.51467 23.728 6.304 23.728C6.92267 23.728 7.392 23.5573 7.712 23.216C8.032 22.8533 8.192 22.3733 8.192 21.776C8.192 21.2427 8.07467 20.7627 7.84 20.336C7.60533 19.9093 7.22133 19.472 6.688 19.024L3.52 16.304C2.88 15.7493 2.336 15.1307 1.888 14.448C1.46133 13.7653 1.248 12.88 1.248 11.792C1.248 10.8107 1.44 9.98933 1.824 9.328C2.22933 8.64533 2.784 8.13333 3.488 7.792C4.21333 7.42933 5.056 7.248 6.016 7.248C7.552 7.248 8.72533 7.728 9.536 8.688C10.3467 9.62667 10.816 10.768 10.944 12.112L8.512 12.976C8.42667 12.336 8.29867 11.7813 8.128 11.312C7.95733 10.8213 7.712 10.448 7.392 10.192C7.072 9.91467 6.656 9.776 6.144 9.776C5.58933 9.776 5.14133 9.968 4.8 10.352C4.48 10.7147 4.32 11.152 4.32 11.664C4.32 11.984 4.384 12.304 4.512 12.624C4.66133 12.9227 4.90667 13.2213 5.248 13.52L8.512 16.528C8.96 16.9333 9.376 17.3707 9.76 17.84C10.1653 18.3093 10.496 18.8427 10.752 19.44C11.008 20.0373 11.136 20.7307 11.136 21.52C11.136 22.5653 10.9227 23.44 10.496 24.144C10.0693 24.848 9.472 25.3813 8.704 25.744C7.936 26.0853 7.04 26.256 6.016 26.256ZM18.7848 26.256C17.4194 26.256 16.3421 25.9787 15.5528 25.424C14.7634 24.8693 14.1981 24.08 13.8568 23.056C13.5368 22.032 13.3768 20.8267 13.3768 19.44V14.064C13.3768 12.6773 13.5368 11.472 13.8568 10.448C14.1981 9.424 14.7634 8.63467 15.5528 8.08C16.3421 7.52533 17.4194 7.248 18.7848 7.248C20.1501 7.248 21.2168 7.52533 21.9848 8.08C22.7741 8.63467 23.3288 9.424 23.6488 10.448C23.9901 11.472 24.1608 12.6773 24.1608 14.064V19.44C24.1608 20.8267 23.9901 22.032 23.6488 23.056C23.3288 24.08 22.7741 24.8693 21.9848 25.424C21.2168 25.9787 20.1501 26.256 18.7848 26.256ZM18.7848 23.728C19.4461 23.728 19.9048 23.536 20.1608 23.152C20.4381 22.768 20.5981 22.2667 20.6408 21.648C20.7048 21.008 20.7368 20.3467 20.7368 19.664V13.872C20.7368 13.168 20.7048 12.5067 20.6408 11.888C20.5981 11.2693 20.4381 10.768 20.1608 10.384C19.9048 9.97867 19.4461 9.776 18.7848 9.776C18.1234 9.776 17.6541 9.97867 17.3768 10.384C17.0994 10.768 16.9288 11.2693 16.8648 11.888C16.8221 12.5067 16.8008 13.168 16.8008 13.872V19.664C16.8008 20.3467 16.8221 21.008 16.8648 21.648C16.9288 22.2667 17.0994 22.768 17.3768 23.152C17.6541 23.536 18.1234 23.728 18.7848 23.728ZM27.2905 32.08V7.504H30.7145V8.976C31.1198 8.50667 31.6105 8.10133 32.1865 7.76C32.7625 7.41867 33.4452 7.248 34.2345 7.248C35.1945 7.248 35.9518 7.504 36.5065 8.016C37.0825 8.50667 37.5092 9.136 37.7865 9.904C38.0638 10.6507 38.2452 11.4187 38.3305 12.208C38.4158 12.976 38.4585 13.6373 38.4585 14.192V18.672C38.4585 19.9733 38.3305 21.2107 38.0745 22.384C37.8185 23.536 37.3492 24.4747 36.6665 25.2C36.0052 25.904 35.0665 26.256 33.8505 26.256C33.1892 26.256 32.6025 26.096 32.0905 25.776C31.5785 25.4347 31.1198 25.0507 30.7145 24.624V32.08H27.2905ZM33.1785 23.568C33.7758 23.568 34.2025 23.3547 34.4585 22.928C34.7145 22.48 34.8745 21.8827 34.9385 21.136C35.0025 20.3893 35.0345 19.568 35.0345 18.672V14.192C35.0345 13.424 34.9918 12.72 34.9065 12.08C34.8212 11.4187 34.6398 10.896 34.3625 10.512C34.0852 10.128 33.6478 9.936 33.0505 9.936C32.6025 9.936 32.1758 10.032 31.7705 10.224C31.3652 10.416 31.0132 10.64 30.7145 10.896V22.736C31.0345 22.9707 31.3972 23.1733 31.8025 23.344C32.2078 23.4933 32.6665 23.568 33.1785 23.568ZM41.6678 26V0.079998H45.0918V9.424C45.7104 8.82667 46.4038 8.31467 47.1718 7.888C47.9398 7.46133 48.7931 7.248 49.7318 7.248C50.4571 7.248 51.0118 7.44 51.3958 7.824C51.8011 8.208 52.0784 8.688 52.2278 9.264C52.3984 9.84 52.4838 10.4267 52.4838 11.024V26H49.0598V12.016C49.0598 11.3547 48.9638 10.8427 48.7718 10.48C48.5798 10.1173 48.1851 9.936 47.5878 9.936C47.1824 9.936 46.7558 10.0533 46.3078 10.288C45.8811 10.5227 45.4758 10.8107 45.0918 11.152V26H41.6678ZM56.0458 26V7.504H59.4698V26H56.0458ZM56.0458 4.752V1.168H59.4698V4.752H56.0458ZM65.9183 26.256C65.1929 26.256 64.5529 26.0533 63.9983 25.648C63.4436 25.2213 63.0063 24.688 62.6863 24.048C62.3663 23.3867 62.2063 22.6933 62.2063 21.968C62.2063 20.816 62.3983 19.8453 62.7823 19.056C63.1663 18.2667 63.6889 17.6053 64.3503 17.072C65.0329 16.5173 65.8116 16.0373 66.6863 15.632C67.5823 15.2267 68.5209 14.832 69.5023 14.448V13.136C69.5023 12.3893 69.4596 11.7707 69.3743 11.28C69.2889 10.7893 69.1076 10.4267 68.8303 10.192C68.5743 9.936 68.1796 9.808 67.6463 9.808C67.1769 9.808 66.7929 9.91467 66.4943 10.128C66.2169 10.3413 66.0143 10.6507 65.8863 11.056C65.7583 11.44 65.6943 11.8987 65.6943 12.432V13.36L62.3023 13.232C62.3449 11.184 62.8143 9.68 63.7103 8.72C64.6063 7.73867 65.9929 7.248 67.8703 7.248C69.7049 7.248 71.0063 7.74933 71.7743 8.752C72.5423 9.75467 72.9263 11.2053 72.9263 13.104V21.552C72.9263 22.128 72.9369 22.6827 72.9583 23.216C73.0009 23.7493 73.0436 24.2507 73.0863 24.72C73.1503 25.168 73.2036 25.5947 73.2463 26H70.1103C70.0463 25.6587 69.9609 25.232 69.8542 24.72C69.7689 24.1867 69.7049 23.7067 69.6623 23.28C69.4489 24.0053 69.0329 24.688 68.4143 25.328C67.8169 25.9467 66.9849 26.256 65.9183 26.256ZM67.2623 23.312C67.6036 23.312 67.9236 23.216 68.2223 23.024C68.5209 22.832 68.7876 22.6187 69.0223 22.384C69.2569 22.128 69.4169 21.9253 69.5023 21.776V16.528C68.9689 16.8267 68.4676 17.1253 67.9983 17.424C67.5289 17.7227 67.1129 18.0427 66.7503 18.384C66.4089 18.704 66.1316 19.0773 65.9183 19.504C65.7263 19.9093 65.6302 20.3787 65.6302 20.912C65.6302 21.6587 65.7689 22.2453 66.0463 22.672C66.3236 23.0987 66.7289 23.312 67.2623 23.312Z" fill="#131313"/>
</svg>
